<?xml version="1.0" encoding="iso-8859-1"?>
<!-- Uploaded to: SVG Repo, www.svgrepo.com, Generator: SVG Repo Mixer Tools -->
<svg version="1.1" id="Layer_1" xmlns="http://www.w3.org/2000/svg" xmlns:xlink="http://www.w3.org/1999/xlink" 
	 viewBox="0 0 512.002 512.002" xml:space="preserve">
<circle style="fill:#FF6472;" cx="256.001" cy="256" r="256"/>
<path style="fill:#C75163;" d="M511.847,264.454L380.553,133.161l-0.571,2.198l-19.272-19.272l-27.246,158.256l-64.121-64.121
	l-12.193,54.396l-35.207,78.169l-43.966-43.966l-21.387,28.665l-50.138,79.775l99.912,99.912c16.06,3.156,32.652,4.827,49.636,4.827
	C394.555,512,507.384,401.923,511.847,264.454z"/>
<polygon style="fill:#F9B54C;" points="289.186,133.161 289.186,224.528 197.819,224.528 197.819,315.895 106.452,315.895 
	106.452,407.262 197.819,407.262 289.186,407.262 380.553,407.262 380.553,315.895 380.553,224.528 380.553,133.161 "/>
<rect x="197.819" y="315.888" style="fill:#31BAFD;" width="91.367" height="91.367"/>
<rect x="242.727" y="315.888" style="fill:#2B9ED8;" width="46.452" height="91.367"/>
<rect x="289.186" y="315.888" style="fill:#F9B54C;" width="91.367" height="91.367"/>
<rect x="334.404" y="315.888" style="fill:#F4A200;" width="46.144" height="91.367"/>
<rect x="289.186" y="224.521" style="fill:#FFD300;" width="91.367" height="91.367"/>
<rect x="334.404" y="224.521" style="fill:#EDBF00;" width="46.144" height="91.367"/>
<rect x="126.294" y="298.822" style="fill:#E6F3FF;" width="51.683" height="30.456"/>
<rect x="152.911" y="298.822" style="fill:#CFDBE6;" width="25.071" height="30.456"/>
<rect x="217.661" y="210.23" style="fill:#84DBFF;" width="51.683" height="30.456"/>
<rect x="242.727" y="210.23" style="fill:#31BAFD;" width="26.61" height="30.456"/>
<rect x="309.028" y="116.088" style="fill:#F4A200;" width="51.683" height="30.456"/>
<rect x="334.404" y="116.088" style="fill:#D68900;" width="26.302" height="30.456"/>
<rect x="106.452" y="315.888" style="fill:#FFFFFF;" width="91.367" height="91.367"/>
<rect x="152.911" y="315.888" style="fill:#E6F3FF;" width="44.908" height="91.367"/>
<rect x="197.819" y="224.521" style="fill:#B5F1F4;" width="91.367" height="91.367"/>
<rect x="242.727" y="224.521" style="fill:#84DBFF;" width="46.452" height="91.367"/>
<rect x="289.186" y="133.154" style="fill:#F9B54C;" width="91.367" height="91.367"/>
<rect x="334.404" y="133.154" style="fill:#F4A200;" width="46.144" height="91.367"/>
</svg>